
      <svg data-logo="logo" xmlns="http://www.w3.org/2000/svg" viewBox="0 0 189 42">
        <g id="logogram" transform="translate(0, 21) rotate(0)"></g>
        <g id="logotype" transform="translate(0, 1)"><path fill="#fefbfb" d="M11.64 33.38L11.64 33.38Q8.58 33.38 6.31 32.44Q4.05 31.50 2.79 29.65Q1.52 27.80 1.45 25.10L1.45 25.10L6.53 25.10Q6.63 26.39 7.30 27.25Q7.96 28.11 9.07 28.54Q10.19 28.97 11.59 28.97L11.59 28.97Q12.99 28.97 14.02 28.57Q15.06 28.16 15.64 27.43Q16.22 26.69 16.22 25.72L16.22 25.72Q16.22 24.85 15.70 24.26Q15.18 23.67 14.20 23.24Q13.23 22.81 11.83 22.49L11.83 22.49L9.02 21.79Q5.79 21.00 3.96 19.32Q2.14 17.64 2.14 14.87L2.14 14.87Q2.14 12.56 3.38 10.83Q4.61 9.11 6.78 8.15Q8.94 7.19 11.71 7.19L11.71 7.19Q14.53 7.19 16.63 8.16Q18.73 9.13 19.91 10.84Q21.09 12.56 21.12 14.80L21.12 14.80L16.08 14.80Q15.94 13.26 14.77 12.42Q13.60 11.59 11.66 11.59L11.66 11.59Q10.34 11.59 9.40 11.96Q8.46 12.34 7.96 13.00Q7.47 13.67 7.47 14.53L7.47 14.53Q7.47 15.47 8.04 16.09Q8.61 16.71 9.54 17.10Q10.48 17.48 11.55 17.74L11.55 17.74L13.86 18.30Q15.47 18.66 16.85 19.28Q18.23 19.89 19.28 20.79Q20.32 21.69 20.89 22.92Q21.46 24.15 21.46 25.75L21.46 25.75Q21.46 28.06 20.30 29.78Q19.14 31.50 16.94 32.44Q14.73 33.38 11.64 33.38ZM20.98 13.89L32.31 13.89L32.31 17.81L20.98 17.81L20.98 13.89ZM23.62 27.86L23.62 9.35L28.74 9.35L28.74 27.41Q28.74 28.32 29.14 28.75Q29.55 29.19 30.49 29.19L30.49 29.19Q30.78 29.19 31.31 29.11Q31.84 29.04 32.11 28.97L32.11 28.97L32.84 32.81Q31.99 33.07 31.14 33.17Q30.30 33.27 29.53 33.27L29.53 33.27Q26.66 33.27 25.14 31.87Q23.62 30.47 23.62 27.86L23.62 27.86ZM38.50 33L33.37 33L33.37 13.89L38.33 13.89L38.33 17.23L38.53 17.23Q39.06 15.45 40.30 14.54Q41.54 13.64 43.15 13.64L43.15 13.64Q43.54 13.64 43.99 13.68Q44.45 13.72 44.81 13.81L44.81 13.81L44.81 18.39Q44.46 18.27 43.81 18.20Q43.16 18.13 42.58 18.13L42.58 18.13Q41.42 18.13 40.48 18.64Q39.54 19.14 39.02 20.04Q38.50 20.93 38.50 22.13L38.50 22.13L38.50 33ZM53.98 33.38L53.98 33.38Q51.06 33.38 48.94 32.18Q46.82 30.98 45.68 28.78Q44.55 26.57 44.55 23.55L44.55 23.55Q44.55 20.59 45.68 18.37Q46.80 16.15 48.87 14.90Q50.94 13.65 53.72 13.65L53.72 13.65Q55.60 13.65 57.23 14.25Q58.85 14.85 60.08 16.06Q61.31 17.26 62.00 19.07Q62.70 20.88 62.70 23.34L62.70 23.34L62.70 24.78L46.65 24.78L46.65 21.57L60.18 21.57L57.79 22.42Q57.79 20.93 57.34 19.83Q56.89 18.73 55.99 18.12Q55.09 17.52 53.76 17.52L53.76 17.52Q52.44 17.52 51.51 18.13Q50.58 18.75 50.10 19.80Q49.62 20.85 49.62 22.20L49.62 22.20L49.62 24.47Q49.62 26.13 50.18 27.26Q50.73 28.39 51.73 28.95Q52.73 29.51 54.07 29.51L54.07 29.51Q54.97 29.51 55.71 29.26Q56.44 29.00 56.96 28.50Q57.48 27.99 57.76 27.26L57.76 27.26L62.41 28.13Q61.94 29.70 60.80 30.89Q59.65 32.08 57.94 32.73Q56.22 33.38 53.98 33.38ZM69.26 33.38L69.26 33.38Q67.45 33.38 66.00 32.74Q64.56 32.09 63.73 30.82Q62.90 29.55 62.90 27.65L62.90 27.65Q62.90 26.06 63.49 24.98Q64.08 23.91 65.10 23.26Q66.11 22.61 67.40 22.27Q68.69 21.93 70.11 21.79L70.11 21.79Q71.77 21.62 72.79 21.47Q73.80 21.33 74.27 21.01Q74.74 20.70 74.74 20.08L74.74 20.08L74.74 19.99Q74.74 19.17 74.40 18.61Q74.06 18.05 73.39 17.75Q72.73 17.45 71.75 17.45L71.75 17.45Q70.76 17.45 70.03 17.75Q69.29 18.05 68.83 18.54Q68.37 19.04 68.15 19.65L68.15 19.65L63.45 18.87Q63.94 17.21 65.09 16.05Q66.23 14.88 67.93 14.27Q69.63 13.65 71.75 13.65L71.75 13.65Q73.31 13.65 74.76 14.02Q76.21 14.39 77.37 15.16Q78.52 15.93 79.19 17.16Q79.87 18.39 79.87 20.13L79.87 20.13L79.87 33L75.02 33L75.02 30.35L74.85 30.35Q74.38 31.24 73.61 31.91Q72.85 32.59 71.76 32.98Q70.68 33.38 69.26 33.38ZM70.71 29.77L70.71 29.77Q71.92 29.77 72.84 29.29Q73.75 28.81 74.26 27.99Q74.78 27.17 74.78 26.16L74.78 26.16L74.78 24.10Q74.55 24.27 74.09 24.40Q73.63 24.54 73.07 24.64Q72.50 24.75 71.96 24.83Q71.41 24.92 70.98 24.97L70.98 24.97Q70.04 25.10 69.33 25.41Q68.61 25.72 68.21 26.22Q67.82 26.73 67.82 27.51L67.82 27.51Q67.82 28.25 68.20 28.75Q68.57 29.26 69.21 29.51Q69.86 29.77 70.71 29.77ZM87.10 33L81.97 33L81.97 13.89L86.72 13.89L86.98 18.64L86.60 18.64Q87.05 16.88 87.91 15.77Q88.77 14.66 89.93 14.13Q91.10 13.60 92.38 13.60L92.38 13.60Q94.45 13.60 95.71 14.91Q96.97 16.22 97.57 18.95L97.57 18.95L96.97 18.95Q97.40 17.12 98.37 15.94Q99.33 14.75 100.66 14.18Q101.98 13.60 103.43 13.60L103.43 13.60Q105.19 13.60 106.57 14.37Q107.95 15.14 108.74 16.59Q109.54 18.03 109.54 20.11L109.54 20.11L109.54 33L104.41 33L104.41 21.09Q104.41 19.46 103.53 18.68Q102.65 17.89 101.37 17.89L101.37 17.89Q100.41 17.89 99.70 18.31Q98.99 18.73 98.61 19.48Q98.22 20.23 98.22 21.24L98.22 21.24L98.22 33L93.27 33L93.27 20.95Q93.27 19.55 92.44 18.72Q91.61 17.89 90.29 17.89L90.29 17.89Q89.39 17.89 88.66 18.30Q87.93 18.71 87.52 19.51Q87.10 20.30 87.10 21.45L87.10 21.45L87.10 33ZM121.09 33.38L121.09 33.38Q118.03 33.38 115.76 32.44Q113.50 31.50 112.23 29.65Q110.97 27.80 110.90 25.10L110.90 25.10L115.98 25.10Q116.08 26.39 116.75 27.25Q117.41 28.11 118.52 28.54Q119.63 28.97 121.04 28.97L121.04 28.97Q122.44 28.97 123.47 28.57Q124.50 28.16 125.09 27.43Q125.67 26.69 125.67 25.72L125.67 25.72Q125.67 24.85 125.15 24.26Q124.62 23.67 123.65 23.24Q122.68 22.81 121.27 22.49L121.27 22.49L118.47 21.79Q115.24 21.00 113.41 19.32Q111.58 17.64 111.58 14.87L111.58 14.87Q111.58 12.56 112.82 10.83Q114.06 9.11 116.22 8.15Q118.39 7.19 121.15 7.19L121.15 7.19Q123.97 7.19 126.08 8.16Q128.18 9.13 129.36 10.84Q130.54 12.56 130.57 14.80L130.57 14.80L125.53 14.80Q125.39 13.26 124.22 12.42Q123.05 11.59 121.10 11.59L121.10 11.59Q119.79 11.59 118.85 11.96Q117.91 12.34 117.41 13.00Q116.92 13.67 116.92 14.53L116.92 14.53Q116.92 15.47 117.49 16.09Q118.06 16.71 118.99 17.10Q119.92 17.48 121.00 17.74L121.00 17.74L123.31 18.30Q124.91 18.66 126.30 19.28Q127.68 19.89 128.73 20.79Q129.77 21.69 130.34 22.92Q130.91 24.15 130.91 25.75L130.91 25.75Q130.91 28.06 129.75 29.78Q128.59 31.50 126.38 32.44Q124.18 33.38 121.09 33.38ZM132.14 39.77L132.14 39.77L133.32 35.91L133.95 36.06Q134.98 36.33 135.78 36.21Q136.58 36.09 137.07 35.56Q137.56 35.03 137.66 34.08L137.66 34.08L137.80 33.05L130.62 13.89L136.07 13.89L139.28 23.81Q139.87 25.69 140.23 27.57Q140.60 29.45 141.08 31.50L141.08 31.50L139.88 31.50Q140.34 29.45 140.81 27.56Q141.27 25.67 141.88 23.81L141.88 23.81L145.23 13.89L150.62 13.89L142.50 35.26Q141.92 36.79 141.01 37.92Q140.11 39.05 138.76 39.67Q137.41 40.28 135.49 40.28L135.49 40.28Q134.47 40.28 133.58 40.14Q132.69 39.99 132.14 39.77ZM156.20 21.94L156.20 21.94L156.20 33L151.07 33L151.07 13.89L155.91 13.89L156.00 18.66L155.69 18.66Q156.44 16.27 157.97 14.96Q159.50 13.65 161.93 13.65L161.93 13.65Q163.91 13.65 165.38 14.52Q166.85 15.38 167.67 17.00Q168.49 18.61 168.49 20.85L168.49 20.85L168.49 33L163.36 33L163.36 21.74Q163.36 19.96 162.45 18.95Q161.53 17.94 159.91 17.94L159.91 17.94Q158.83 17.94 157.99 18.41Q157.14 18.88 156.67 19.77Q156.20 20.66 156.20 21.94ZM179.13 33.38L179.13 33.38Q176.25 33.38 174.15 32.14Q172.06 30.90 170.92 28.68Q169.79 26.47 169.79 23.53L169.79 23.53Q169.79 20.56 170.92 18.35Q172.06 16.13 174.15 14.89Q176.25 13.65 179.13 13.65L179.13 13.65Q180.83 13.65 182.26 14.10Q183.70 14.54 184.81 15.36Q185.92 16.18 186.64 17.36Q187.35 18.54 187.63 20.01L187.63 20.01L182.86 20.90Q182.71 20.15 182.38 19.56Q182.06 18.97 181.60 18.55Q181.13 18.13 180.53 17.91Q179.92 17.69 179.19 17.69L179.19 17.69Q177.82 17.69 176.89 18.42Q175.96 19.16 175.49 20.47Q175.02 21.79 175.02 23.52L175.02 23.52Q175.02 25.22 175.49 26.53Q175.96 27.84 176.89 28.59Q177.82 29.34 179.19 29.34L179.19 29.34Q179.92 29.34 180.54 29.11Q181.15 28.88 181.63 28.45Q182.11 28.01 182.43 27.39Q182.76 26.78 182.89 26.01L182.89 26.01L187.66 26.88Q187.39 28.40 186.67 29.59Q185.95 30.78 184.84 31.63Q183.73 32.49 182.29 32.93Q180.84 33.38 179.13 33.38Z"/></g>
        
      </svg>
    