<svg data-logo="logo" xmlns="http://www.w3.org/2000/svg" viewBox="0 0 243 42">
        <g style="opacity: 1;" id="logogram" transform="translate(0, 1) rotate(0)"><path fill-rule="evenodd" clip-rule="evenodd" d="M23.4822 1.09633C22.0194 -0.365863 19.6482 -0.365383 18.1861 1.09741L5.98295 13.3055L5.97255 13.3025L5.93399 13.3066C5.94987 13.3142 5.96546 13.3218 5.98074 13.3294C3.84006 13.5537 2.9318 14.197 2.92152 15.0231C2.92514 15.3304 3.05122 15.6623 3.28281 16.0068L3.27168 16.0179C5.21778 18.9531 14.8587 22.8251 21.6793 20.2017C16.5675 22.7576 4.52892 23.2642 0.992995 18.3016C0.225104 19.1323 -0.0961769 20.224 0.0248128 21.2731C0.958907 26.4216 11.4021 27.8262 21.8454 20.3667L24.1053 22.6266C21.2932 25.5156 17.1394 42.297 23.3115 39.7349C23.4579 39.6355 23.5822 39.5465 23.7512 39.4186L24.0263 39.1589C24.0104 39.1629 23.9946 39.1666 23.979 39.1703L40.5092 23.5648C42.044 22.1158 42.0788 19.6853 40.5859 18.193L23.4822 1.09633ZM21.6821 6.182L22.247 3.92213L22.812 6.182L24.5069 6.74697L22.812 7.31196L22.247 9.57183L21.6821 7.31196L19.9872 6.74697L21.6821 6.182ZM14.6892 13.5593L15.0658 12.0526L15.4424 13.5593L16.5724 13.9359L15.4424 14.3125L15.0658 15.8191L14.6892 14.3125L13.5593 13.9359L14.6892 13.5593ZM27.8072 26.2672L27.4305 27.7738L26.3007 28.1505L27.4305 28.5271L27.8072 30.0336L28.1838 28.5271L29.3138 28.1505L28.1838 27.7738L27.8072 26.2672Z" fill="#2563EB"></path><path fill-rule="evenodd" clip-rule="evenodd" d="M41.7822 2.59183C38.2483 2.59183 34.8969 4.16152 32.6344 6.87637L24.5858 16.5349L29.2334 9.56332L21.5187 12.8697C20.5389 13.2896 20.2931 14.5661 21.0468 15.3198L23.5294 17.8024L22.2618 19.3235L25.0505 22.1121L26.5715 20.8445L29.0542 23.3272C29.8079 24.0808 31.0844 23.835 31.5043 22.8554L34.8106 15.1406L27.8391 19.7883L37.4976 11.7395C40.2125 9.47715 41.7822 6.12577 41.7822 2.59183ZM34.1135 10.2607C34.8836 11.0307 36.132 11.0307 36.9021 10.2607C37.6721 9.49056 37.6721 8.24208 36.9021 7.47208C36.132 6.70198 34.8836 6.70198 34.1135 7.47208C33.3434 8.24208 33.3434 9.49056 34.1135 10.2607Z" fill="#60A5FA"></path><path opacity="0.6" d="M0.903366 18.1718C2.74975 24.4977 13.9754 24.1679 21.6772 20.2027C16.52 22.7797 4.32009 23.2719 0.903366 18.1718Z" fill="#111827"></path><path opacity="0.6" d="M23.3115 39.7349C18.1107 41.8938 20.2416 30.3184 22.7235 24.8932C20.9144 29.7153 19.3701 40.3455 24.0263 39.159L23.7512 39.4187C23.5822 39.5466 23.4579 39.6355 23.3115 39.7349Z" fill=""></path></g>
        <g style="opacity: 1;" id="logotype" transform="translate(48, 1)"><path fill="#fefbfb" d="M17.64 33.38L17.64 33.38Q14.58 33.38 12.31 32.44Q10.05 31.50 8.79 29.65Q7.52 27.80 7.45 25.10L7.45 25.10L12.53 25.10Q12.63 26.39 13.30 27.25Q13.96 28.11 15.07 28.54Q16.19 28.97 17.59 28.97L17.59 28.97Q18.99 28.97 20.02 28.57Q21.06 28.16 21.64 27.43Q22.22 26.69 22.22 25.72L22.22 25.72Q22.22 24.85 21.70 24.26Q21.18 23.67 20.20 23.24Q19.23 22.81 17.83 22.49L17.83 22.49L15.02 21.79Q11.79 21.00 9.96 19.32Q8.14 17.64 8.14 14.87L8.14 14.87Q8.14 12.56 9.38 10.83Q10.61 9.11 12.78 8.15Q14.94 7.19 17.71 7.19L17.71 7.19Q20.53 7.19 22.63 8.16Q24.73 9.13 25.91 10.84Q27.09 12.56 27.12 14.80L27.12 14.80L22.08 14.80Q21.94 13.26 20.77 12.42Q19.60 11.59 17.66 11.59L17.66 11.59Q16.34 11.59 15.40 11.96Q14.46 12.34 13.96 13.00Q13.47 13.67 13.47 14.53L13.47 14.53Q13.47 15.47 14.04 16.09Q14.61 16.71 15.54 17.10Q16.48 17.48 17.55 17.74L17.55 17.74L19.86 18.30Q21.47 18.66 22.85 19.28Q24.23 19.89 25.28 20.79Q26.32 21.69 26.89 22.92Q27.46 24.15 27.46 25.75L27.46 25.75Q27.46 28.06 26.30 29.78Q25.14 31.50 22.94 32.44Q20.73 33.38 17.64 33.38ZM26.98 13.89L38.31 13.89L38.31 17.81L26.98 17.81L26.98 13.89ZM29.62 27.86L29.62 9.35L34.74 9.35L34.74 27.41Q34.74 28.32 35.14 28.75Q35.55 29.19 36.49 29.19L36.49 29.19Q36.78 29.19 37.31 29.11Q37.84 29.04 38.11 28.97L38.11 28.97L38.84 32.81Q37.99 33.07 37.14 33.17Q36.30 33.27 35.53 33.27L35.53 33.27Q32.66 33.27 31.14 31.87Q29.62 30.47 29.62 27.86L29.62 27.86ZM44.50 33L39.37 33L39.37 13.89L44.33 13.89L44.33 17.23L44.53 17.23Q45.06 15.45 46.30 14.54Q47.54 13.64 49.15 13.64L49.15 13.64Q49.54 13.64 49.99 13.68Q50.45 13.72 50.81 13.81L50.81 13.81L50.81 18.39Q50.46 18.27 49.81 18.20Q49.16 18.13 48.58 18.13L48.58 18.13Q47.42 18.13 46.48 18.64Q45.54 19.14 45.02 20.04Q44.50 20.93 44.50 22.13L44.50 22.13L44.50 33ZM59.98 33.38L59.98 33.38Q57.06 33.38 54.94 32.18Q52.82 30.98 51.68 28.78Q50.55 26.57 50.55 23.55L50.55 23.55Q50.55 20.59 51.68 18.37Q52.80 16.15 54.87 14.90Q56.94 13.65 59.72 13.65L59.72 13.65Q61.60 13.65 63.23 14.25Q64.85 14.85 66.08 16.06Q67.31 17.26 68.00 19.07Q68.70 20.88 68.70 23.34L68.70 23.34L68.70 24.78L52.65 24.78L52.65 21.57L66.18 21.57L63.79 22.42Q63.79 20.93 63.34 19.83Q62.89 18.73 61.99 18.12Q61.09 17.52 59.76 17.52L59.76 17.52Q58.44 17.52 57.51 18.13Q56.58 18.75 56.10 19.80Q55.62 20.85 55.62 22.20L55.62 22.20L55.62 24.47Q55.62 26.13 56.18 27.26Q56.73 28.39 57.73 28.95Q58.73 29.51 60.07 29.51L60.07 29.51Q60.97 29.51 61.71 29.26Q62.44 29.00 62.96 28.50Q63.48 27.99 63.76 27.26L63.76 27.26L68.41 28.13Q67.94 29.70 66.80 30.89Q65.65 32.08 63.94 32.73Q62.22 33.38 59.98 33.38ZM75.26 33.38L75.26 33.38Q73.45 33.38 72.00 32.74Q70.56 32.09 69.73 30.82Q68.90 29.55 68.90 27.65L68.90 27.65Q68.90 26.06 69.49 24.98Q70.08 23.91 71.10 23.26Q72.11 22.61 73.40 22.27Q74.69 21.93 76.11 21.79L76.11 21.79Q77.77 21.62 78.79 21.47Q79.80 21.33 80.27 21.01Q80.74 20.70 80.74 20.08L80.74 20.08L80.74 19.99Q80.74 19.17 80.40 18.61Q80.06 18.05 79.39 17.75Q78.73 17.45 77.75 17.45L77.75 17.45Q76.76 17.45 76.03 17.75Q75.29 18.05 74.83 18.54Q74.37 19.04 74.15 19.65L74.15 19.65L69.45 18.87Q69.94 17.21 71.09 16.05Q72.23 14.88 73.93 14.27Q75.63 13.65 77.75 13.65L77.75 13.65Q79.31 13.65 80.76 14.02Q82.21 14.39 83.37 15.16Q84.52 15.93 85.19 17.16Q85.87 18.39 85.87 20.13L85.87 20.13L85.87 33L81.02 33L81.02 30.35L80.85 30.35Q80.38 31.24 79.61 31.91Q78.85 32.59 77.76 32.98Q76.68 33.38 75.26 33.38ZM76.71 29.77L76.71 29.77Q77.92 29.77 78.84 29.29Q79.75 28.81 80.26 27.99Q80.78 27.17 80.78 26.16L80.78 26.16L80.78 24.10Q80.55 24.27 80.09 24.40Q79.63 24.54 79.07 24.64Q78.50 24.75 77.96 24.83Q77.41 24.92 76.98 24.97L76.98 24.97Q76.04 25.10 75.33 25.41Q74.61 25.72 74.21 26.22Q73.82 26.73 73.82 27.51L73.82 27.51Q73.82 28.25 74.20 28.75Q74.57 29.26 75.21 29.51Q75.86 29.77 76.71 29.77ZM93.10 33L87.97 33L87.97 13.89L92.72 13.89L92.98 18.64L92.60 18.64Q93.05 16.88 93.91 15.77Q94.77 14.66 95.93 14.13Q97.10 13.60 98.38 13.60L98.38 13.60Q100.45 13.60 101.71 14.91Q102.97 16.22 103.57 18.95L103.57 18.95L102.97 18.95Q103.40 17.12 104.37 15.94Q105.33 14.75 106.66 14.18Q107.98 13.60 109.43 13.60L109.43 13.60Q111.19 13.60 112.57 14.37Q113.95 15.14 114.74 16.59Q115.54 18.03 115.54 20.11L115.54 20.11L115.54 33L110.41 33L110.41 21.09Q110.41 19.46 109.53 18.68Q108.65 17.89 107.37 17.89L107.37 17.89Q106.41 17.89 105.70 18.31Q104.99 18.73 104.61 19.48Q104.22 20.23 104.22 21.24L104.22 21.24L104.22 33L99.27 33L99.27 20.95Q99.27 19.55 98.44 18.72Q97.61 17.89 96.29 17.89L96.29 17.89Q95.39 17.89 94.66 18.30Q93.93 18.71 93.52 19.51Q93.10 20.30 93.10 21.45L93.10 21.45L93.10 33ZM127.09 33.38L127.09 33.38Q124.03 33.38 121.76 32.44Q119.50 31.50 118.23 29.65Q116.97 27.80 116.90 25.10L116.90 25.10L121.98 25.10Q122.08 26.39 122.75 27.25Q123.41 28.11 124.52 28.54Q125.63 28.97 127.04 28.97L127.04 28.97Q128.44 28.97 129.47 28.57Q130.50 28.16 131.09 27.43Q131.67 26.69 131.67 25.72L131.67 25.72Q131.67 24.85 131.15 24.26Q130.62 23.67 129.65 23.24Q128.68 22.81 127.27 22.49L127.27 22.49L124.47 21.79Q121.24 21.00 119.41 19.32Q117.58 17.64 117.58 14.87L117.58 14.87Q117.58 12.56 118.82 10.83Q120.06 9.11 122.22 8.15Q124.39 7.19 127.15 7.19L127.15 7.19Q129.97 7.19 132.08 8.16Q134.18 9.13 135.36 10.84Q136.54 12.56 136.57 14.80L136.57 14.80L131.53 14.80Q131.39 13.26 130.22 12.42Q129.05 11.59 127.10 11.59L127.10 11.59Q125.79 11.59 124.85 11.96Q123.91 12.34 123.41 13.00Q122.92 13.67 122.92 14.53L122.92 14.53Q122.92 15.47 123.49 16.09Q124.06 16.71 124.99 17.10Q125.92 17.48 127.00 17.74L127.00 17.74L129.31 18.30Q130.91 18.66 132.30 19.28Q133.68 19.89 134.73 20.79Q135.77 21.69 136.34 22.92Q136.91 24.15 136.91 25.75L136.91 25.75Q136.91 28.06 135.75 29.78Q134.59 31.50 132.38 32.44Q130.18 33.38 127.09 33.38ZM138.14 39.77L138.14 39.77L139.32 35.91L139.95 36.06Q140.98 36.33 141.78 36.21Q142.58 36.09 143.07 35.56Q143.56 35.03 143.66 34.08L143.66 34.08L143.80 33.05L136.62 13.89L142.07 13.89L145.28 23.81Q145.87 25.69 146.23 27.57Q146.60 29.45 147.08 31.50L147.08 31.50L145.88 31.50Q146.34 29.45 146.81 27.56Q147.27 25.67 147.88 23.81L147.88 23.81L151.23 13.89L156.62 13.89L148.50 35.26Q147.92 36.79 147.01 37.92Q146.11 39.05 144.76 39.67Q143.41 40.28 141.49 40.28L141.49 40.28Q140.47 40.28 139.58 40.14Q138.69 39.99 138.14 39.77ZM162.20 21.94L162.20 21.94L162.20 33L157.07 33L157.07 13.89L161.91 13.89L162.00 18.66L161.69 18.66Q162.44 16.27 163.97 14.96Q165.50 13.65 167.93 13.65L167.93 13.65Q169.91 13.65 171.38 14.52Q172.85 15.38 173.67 17.00Q174.49 18.61 174.49 20.85L174.49 20.85L174.49 33L169.36 33L169.36 21.74Q169.36 19.96 168.45 18.95Q167.53 17.94 165.91 17.94L165.91 17.94Q164.83 17.94 163.99 18.41Q163.14 18.88 162.67 19.77Q162.20 20.66 162.20 21.94ZM185.13 33.38L185.13 33.38Q182.25 33.38 180.15 32.14Q178.06 30.90 176.92 28.68Q175.79 26.47 175.79 23.53L175.79 23.53Q175.79 20.56 176.92 18.35Q178.06 16.13 180.15 14.89Q182.25 13.65 185.13 13.65L185.13 13.65Q186.83 13.65 188.26 14.10Q189.70 14.54 190.81 15.36Q191.92 16.18 192.64 17.36Q193.35 18.54 193.63 20.01L193.63 20.01L188.86 20.90Q188.71 20.15 188.38 19.56Q188.06 18.97 187.60 18.55Q187.13 18.13 186.53 17.91Q185.92 17.69 185.19 17.69L185.19 17.69Q183.82 17.69 182.89 18.42Q181.96 19.16 181.49 20.47Q181.02 21.79 181.02 23.52L181.02 23.52Q181.02 25.22 181.49 26.53Q181.96 27.84 182.89 28.59Q183.82 29.34 185.19 29.34L185.19 29.34Q185.92 29.34 186.54 29.11Q187.15 28.88 187.63 28.45Q188.11 28.01 188.43 27.39Q188.76 26.78 188.89 26.01L188.89 26.01L193.66 26.88Q193.39 28.40 192.67 29.59Q191.95 30.78 190.84 31.63Q189.73 32.49 188.29 32.93Q186.84 33.38 185.13 33.38Z"></path></g>

      </svg>